<svg xmlns="http://www.w3.org/2000/svg" xmlns:xlink="http://www.w3.org/1999/xlink" width="500" zoomAndPan="magnify" viewBox="0 0 375 374.999991" height="500" preserveAspectRatio="xMidYMid meet" version="1.0"><defs><g/><clipPath id="405334bc90"><path d="M 18 77 L 357 77 L 357 366.40625 L 18 366.40625 Z M 18 77 " clip-rule="nonzero"/></clipPath><clipPath id="25a1a6905c"><path d="M 143 8.65625 L 196 8.65625 L 196 61 L 143 61 Z M 143 8.65625 " clip-rule="nonzero"/></clipPath></defs><rect x="-37.5" width="450" fill="#ffffff" y="-37.499999" height="449.999989" fill-opacity="1"/><rect x="-37.5" width="450" fill="#ffffff" y="-37.499999" height="449.999989" fill-opacity="1"/><g clip-path="url(#405334bc90)"><path fill="#ff5757" d="M 331.027344 150.738281 C 323.953125 147.027344 321.851562 142.585938 322.207031 139.914062 C 322.359375 138.691406 323.003906 137.816406 323.878906 137.621094 C 324.007812 137.589844 324.160156 137.570312 324.3125 137.570312 C 325.660156 137.570312 327.804688 138.773438 330.066406 142.265625 C 332.398438 145.871094 333.671875 149.085938 333.875 151.867188 C 332.980469 151.632812 332.03125 151.261719 331.027344 150.738281 Z M 321.933594 155.804688 C 323.390625 156.894531 325.003906 157.910156 326.78125 158.839844 C 327.824219 159.390625 328.882812 159.847656 329.941406 160.214844 C 328.765625 161.175781 327.433594 161.972656 326.09375 162.640625 C 324.777344 160.316406 323.394531 158.03125 321.933594 155.804688 Z M 279.558594 309.644531 L 276.671875 345.648438 C 276.671875 345.648438 272.972656 348.53125 266.308594 348.53125 C 262.898438 348.53125 258.707031 347.773438 253.839844 345.488281 L 248.007812 324.78125 C 238.695312 327.472656 228.894531 328.984375 218.730469 328.984375 C 218.730469 328.984375 203.820312 329.226562 189.792969 329.226562 C 175.753906 329.226562 163.070312 328.984375 163.070312 328.984375 C 153.488281 328.984375 144.242188 327.601562 135.40625 325.207031 L 129.722656 345.488281 C 125.128906 347.46875 121.164062 348.144531 117.890625 348.144531 C 110.773438 348.144531 106.902344 344.949219 106.902344 344.949219 L 104.957031 311.535156 C 84.273438 297.886719 68.703125 277.195312 61.617188 252.84375 L 40.414062 246.289062 C 40.414062 246.289062 34.929688 229.789062 36.535156 210.46875 L 60.523438 197.851562 C 66.871094 172.160156 82.507812 150.125 103.800781 135.675781 L 93.003906 97.222656 C 93.003906 97.222656 97.980469 95.285156 104.914062 95.285156 C 115.15625 95.285156 129.664062 99.511719 138.726562 120.425781 C 143.394531 119.324219 148.179688 118.539062 153.050781 118.054688 C 153.757812 126.496094 157.671875 134.019531 163.5625 139.453125 C 158.234375 139.785156 155 140.121094 154.589844 140.167969 C 151.367188 140.515625 149.035156 143.40625 149.378906 146.625 C 149.726562 149.859375 152.683594 152.15625 155.839844 151.835938 C 156.167969 151.792969 188.414062 148.4375 224.933594 152.621094 C 225.160156 152.648438 225.386719 152.660156 225.613281 152.660156 C 228.546875 152.660156 231.089844 150.457031 231.425781 147.460938 C 231.804688 144.242188 229.484375 141.335938 226.269531 140.964844 C 220.046875 140.25 213.972656 139.75 208.15625 139.410156 C 214.148438 133.859375 218.0625 126.136719 218.640625 117.492188 C 218.675781 117.496094 218.730469 117.503906 218.730469 117.503906 C 277.117188 117.503906 324.472656 164.859375 324.472656 223.234375 C 324.472656 258.972656 306.695312 290.507812 279.558594 309.644531 Z M 199.09375 98.78125 C 200.289062 99.742188 201.378906 100.835938 202.339844 102.03125 C 202.386719 102.09375 202.429688 102.15625 202.480469 102.214844 C 202.882812 102.730469 203.261719 103.257812 203.617188 103.808594 C 203.722656 103.964844 203.816406 104.132812 203.914062 104.292969 C 204.195312 104.757812 204.464844 105.230469 204.710938 105.710938 C 204.820312 105.925781 204.921875 106.144531 205.023438 106.363281 C 205.234375 106.8125 205.429688 107.273438 205.609375 107.742188 C 205.703125 107.992188 205.796875 108.238281 205.882812 108.488281 C 206.039062 108.953125 206.175781 109.425781 206.300781 109.898438 C 206.367188 110.164062 206.445312 110.421875 206.503906 110.6875 C 206.617188 111.195312 206.699219 111.714844 206.773438 112.234375 C 206.808594 112.476562 206.859375 112.710938 206.882812 112.953125 C 206.96875 113.71875 207.019531 114.492188 207.019531 115.277344 C 207.019531 115.726562 206.980469 116.160156 206.953125 116.601562 C 206.261719 127.664062 197.070312 136.464844 185.835938 136.464844 C 174.84375 136.464844 165.792969 128.0625 164.746094 117.347656 C 164.683594 116.667969 164.644531 115.976562 164.644531 115.277344 C 164.644531 114.507812 164.6875 113.75 164.769531 113 C 164.792969 112.773438 164.839844 112.554688 164.875 112.332031 C 164.945312 111.808594 165.023438 111.289062 165.136719 110.78125 C 165.1875 110.539062 165.257812 110.304688 165.316406 110.066406 C 165.445312 109.578125 165.570312 109.097656 165.730469 108.625 C 165.804688 108.402344 165.890625 108.1875 165.96875 107.964844 C 166.148438 107.484375 166.335938 107.011719 166.546875 106.550781 C 166.636719 106.355469 166.730469 106.171875 166.824219 105.984375 C 167.0625 105.496094 167.316406 105.023438 167.585938 104.558594 C 167.675781 104.40625 167.769531 104.257812 167.859375 104.109375 C 168.171875 103.613281 168.496094 103.132812 168.847656 102.667969 C 168.925781 102.5625 169 102.457031 169.078125 102.355469 C 169.472656 101.851562 169.886719 101.359375 170.320312 100.890625 C 170.375 100.835938 170.425781 100.777344 170.476562 100.722656 C 170.972656 100.199219 171.492188 99.703125 172.039062 99.234375 C 175.75 96.039062 180.566406 94.097656 185.835938 94.097656 C 190.855469 94.097656 195.464844 95.859375 199.09375 98.78125 Z M 341.101562 160.851562 C 344.84375 159.96875 348.308594 157.9375 351.097656 154.835938 C 356.957031 148.324219 357.863281 139.398438 353.34375 132.621094 C 351.929688 130.519531 349.09375 129.96875 347 131.355469 C 344.898438 132.757812 344.328125 135.597656 345.730469 137.699219 C 348.21875 141.4375 346.808594 145.925781 344.292969 148.707031 C 344.003906 149.03125 343.539062 149.511719 342.902344 150.007812 C 342.363281 146.015625 340.648438 141.769531 337.75 137.292969 C 333.445312 130.640625 327.480469 127.4375 321.871094 128.691406 C 317.226562 129.734375 313.792969 133.671875 313.125 138.71875 C 312.875 140.644531 313.019531 142.5625 313.523438 144.4375 C 291.113281 117.53125 257.503906 100.265625 219.914062 99.90625 C 218.792969 99.773438 217.046875 99.597656 214.667969 99.421875 C 209.054688 89.261719 198.242188 82.363281 185.835938 82.363281 C 173.152344 82.363281 162.136719 89.585938 156.640625 100.117188 C 153.75 100.28125 150.851562 100.511719 147.929688 100.882812 C 137.53125 85.984375 122.402344 77.683594 104.917969 77.683594 C 95.164062 77.679688 87.957031 80.296875 86.613281 80.820312 C 78.175781 84.109375 73.613281 93.261719 76.058594 101.980469 L 83.621094 128.917969 C 65.871094 143.890625 52.714844 163.566406 45.652344 185.789062 L 28.339844 194.890625 C 23.015625 197.691406 19.492188 203.019531 18.996094 209.011719 C 17.144531 231.277344 23.03125 249.800781 23.710938 251.839844 C 25.503906 257.230469 29.785156 261.425781 35.214844 263.105469 L 47.8125 267 C 55.890625 288.296875 69.78125 307 87.875 320.949219 L 89.332031 345.972656 C 89.617188 350.855469 91.921875 355.40625 95.699219 358.519531 C 97.75 360.214844 105.417969 365.746094 117.890625 365.746094 C 124.0625 365.746094 130.386719 364.367188 136.691406 361.652344 C 141.570312 359.546875 145.238281 355.355469 146.671875 350.238281 L 147.964844 345.613281 C 153.023438 346.261719 158.066406 346.585938 163.0625 346.585938 C 162.957031 346.585938 175.699219 346.828125 189.792969 346.828125 C 203.960938 346.828125 219.015625 346.585938 219.015625 346.585938 C 219.019531 346.585938 219.03125 346.585938 219.035156 346.585938 C 224.476562 346.585938 230 346.191406 235.53125 345.410156 L 236.898438 350.257812 C 238.28125 355.179688 241.738281 359.25 246.359375 361.417969 C 253.015625 364.546875 259.726562 366.128906 266.308594 366.128906 C 278.105469 366.128906 285.503906 361.078125 287.492188 359.53125 C 291.382812 356.5 293.820312 351.972656 294.214844 347.054688 L 296.472656 318.894531 C 325.171875 295.550781 342.074219 260.386719 342.074219 223.234375 C 342.074219 204.472656 337.84375 186.679688 330.316406 170.742188 C 334.332031 168.710938 338.65625 165.582031 341.101562 160.851562 " fill-opacity="1" fill-rule="nonzero"/></g><path fill="#ff5757" d="M 96.167969 167.679688 C 90.859375 167.679688 86.699219 172.960938 86.699219 179.703125 C 86.699219 186.445312 90.859375 191.726562 96.167969 191.726562 C 101.472656 191.726562 105.636719 186.445312 105.636719 179.703125 C 105.636719 172.960938 101.472656 167.679688 96.167969 167.679688 " fill-opacity="1" fill-rule="nonzero"/><path fill="#ff5757" d="M 172.300781 229.164062 C 170.679688 227.597656 169.539062 225.921875 168.914062 224.214844 C 168.210938 222.269531 167.78125 220.332031 167.621094 218.460938 C 167.296875 212.574219 169.152344 207.609375 173.292969 203.292969 C 176.679688 199.765625 181.5 197.542969 187.65625 196.664062 L 187.65625 236.722656 C 184.453125 236.074219 181.78125 235.210938 179.65625 234.144531 C 176.605469 232.59375 174.125 230.914062 172.300781 229.164062 Z M 214.375 283.238281 C 213.121094 284.78125 211.265625 286.214844 208.875 287.503906 C 207.34375 288.328125 205.402344 288.960938 203.082031 289.394531 L 203.082031 252.925781 C 207.675781 254.367188 211.148438 256.417969 213.425781 259.03125 C 216.433594 262.484375 217.871094 267.792969 217.71875 274.832031 L 217.71875 274.925781 C 217.71875 275.394531 217.609375 276.503906 216.941406 278.632812 C 216.457031 280.183594 215.617188 281.691406 214.375 283.238281 Z M 226.25 253.46875 C 224.007812 250.03125 220.714844 246.929688 216.5 244.265625 C 212.984375 241.996094 208.570312 240.257812 203.082031 239 L 203.082031 198.054688 C 204.128906 198.488281 205.085938 199.003906 205.972656 199.609375 C 208.214844 201.125 210.125 202.851562 211.667969 204.753906 C 213.136719 206.554688 214.257812 208.578125 214.976562 210.75 C 215.753906 213.136719 216.230469 215.382812 216.402344 217.605469 C 216.941406 222.269531 220.316406 223.988281 223.585938 223.679688 C 225.148438 223.480469 228.902344 222.449219 230.058594 216.222656 C 229.832031 206.847656 226.800781 199.203125 221.0625 193.511719 C 216.230469 188.742188 210.199219 185.609375 203.082031 184.160156 L 203.082031 178.046875 C 203.082031 175.03125 201.65625 173.191406 200.351562 172.09375 C 197.171875 169.59375 192.921875 169.652344 189.980469 172.335938 C 188.921875 173.339844 187.65625 175.148438 187.65625 178.046875 L 187.65625 183.300781 C 183.386719 183.738281 179.34375 184.667969 175.601562 186.066406 C 170.695312 187.910156 166.476562 190.480469 163.058594 193.738281 C 159.660156 196.972656 157.070312 200.8125 155.335938 205.15625 C 153.589844 209.585938 152.929688 214.289062 153.394531 219.207031 C 154.375 228.195312 158.160156 235.5625 164.632812 241.109375 C 170.371094 245.996094 178.007812 249.097656 187.65625 250.367188 L 187.65625 289.640625 C 180.769531 288.914062 175.320312 287.0625 171.414062 284.128906 C 166.789062 280.613281 163.984375 276.453125 162.90625 271.757812 C 162.519531 269.050781 160.457031 266.101562 155.851562 265.933594 C 153.082031 265.785156 151.34375 266.96875 150.492188 267.976562 C 149.652344 268.980469 148.753906 270.742188 149.328125 273.367188 C 151.097656 282.914062 156.039062 290.316406 164.007812 295.382812 C 170.652344 299.582031 178.589844 302.113281 187.65625 302.933594 L 187.65625 307.734375 C 187.65625 310.71875 188.953125 312.527344 190.085938 313.550781 C 191.5625 314.851562 193.34375 315.535156 195.230469 315.535156 C 197.019531 315.535156 198.722656 314.929688 200.386719 313.671875 C 202.132812 312.261719 203.082031 310.160156 203.082031 307.734375 L 203.082031 302.769531 C 211.808594 301.554688 218.484375 298.445312 222.992188 293.5 C 227.996094 287.960938 230.765625 281.804688 231.199219 275.347656 C 231.554688 271.992188 231.371094 268.453125 230.648438 264.53125 C 229.914062 260.589844 228.4375 256.875 226.25 253.46875 " fill-opacity="1" fill-rule="nonzero"/><path fill="#ff5757" d="M 229.613281 46.769531 C 233.648438 46.769531 236.9375 50.054688 236.9375 54.09375 C 236.9375 58.128906 233.648438 61.414062 229.613281 61.414062 C 225.582031 61.414062 222.292969 58.128906 222.292969 54.09375 C 222.292969 50.054688 225.582031 46.769531 229.613281 46.769531 Z M 229.613281 73.144531 C 240.121094 73.144531 248.671875 64.597656 248.671875 54.09375 C 248.671875 43.582031 240.121094 35.035156 229.613281 35.035156 C 219.109375 35.035156 210.558594 43.582031 210.558594 54.09375 C 210.558594 64.597656 219.109375 73.144531 229.613281 73.144531 " fill-opacity="1" fill-rule="nonzero"/><g clip-path="url(#25a1a6905c)"><path fill="#ff5757" d="M 169.378906 20.597656 C 177.078125 20.597656 183.332031 26.855469 183.332031 34.539062 C 183.332031 42.234375 177.078125 48.496094 169.378906 48.496094 C 161.6875 48.496094 155.433594 42.234375 155.433594 34.539062 C 155.433594 26.855469 161.6875 20.597656 169.378906 20.597656 Z M 169.378906 60.230469 C 183.539062 60.230469 195.066406 48.707031 195.066406 34.539062 C 195.066406 20.386719 183.539062 8.867188 169.378906 8.867188 C 155.214844 8.867188 143.695312 20.386719 143.695312 34.539062 C 143.695312 48.707031 155.214844 60.230469 169.378906 60.230469 " fill-opacity="1" fill-rule="nonzero"/></g><g fill="#ffffff" fill-opacity="1"><g transform="translate(125.392473, 217.361902)"><g><path d="M 1.421875 -8.421875 L 3.953125 -5.125 L 4.078125 -4.890625 L 4.203125 -5.125 L 6.734375 -8.421875 L 7.90625 -8.421875 L 4.6875 -4.1875 L 7.90625 0 L 6.734375 0 L 4.203125 -3.28125 L 4.078125 -3.515625 L 3.953125 -3.28125 L 1.421875 0 L 0.25 0 L 3.453125 -4.1875 L 0.25 -8.421875 Z M 1.421875 -8.421875 "/></g></g></g></svg>